<svg width="189" height="31" viewBox="0 0 189 31" fill="none" xmlns="http://www.w3.org/2000/svg">
<path d="M52.0286 26.022H48V4.88965H50.789L63.3706 19.2671V5.35444H67.3992V26.4249H64.6102L52.0286 12.0474V26.022Z" fill="black"/>
<path d="M82.5938 18.4305V14.9601H92.0765V15.4868C92.0765 18.3169 91.4463 20.6408 90.1861 22.4587C88.3268 25.1441 85.5894 26.4868 81.974 26.4868C78.7718 26.4868 76.1584 25.4953 74.1338 23.5122C72.1298 21.5084 71.1278 18.9056 71.1278 15.7037C71.1278 12.5019 72.1504 9.89904 74.1957 7.89528C76.2617 5.89153 78.8957 4.88965 82.098 4.88965C83.4615 4.88965 84.701 5.07556 85.8166 5.4474C86.9323 5.81923 87.8413 6.315 88.5437 6.93472C89.2461 7.55444 89.7626 8.07087 90.0931 8.48401C90.4237 8.8765 90.7129 9.29998 90.9608 9.75444L87.4591 11.6446C87.2938 11.376 87.0975 11.1075 86.8703 10.8389C86.6637 10.5497 86.3435 10.2192 85.9096 9.84739C85.4758 9.45491 84.918 9.14505 84.2362 8.91782C83.5751 8.66993 82.852 8.54599 82.067 8.54599C80.063 8.54599 78.4309 9.24833 77.1707 10.653C75.9105 12.0371 75.2803 13.7413 75.2803 15.7657C75.2803 17.6042 75.8485 19.2465 76.9848 20.6925C78.121 22.1178 79.8048 22.8305 82.036 22.8305C83.5854 22.8305 84.8973 22.469 85.9716 21.746C87.0665 21.023 87.7173 19.9178 87.9239 18.4305H82.5938Z" fill="black"/>
<path d="M110.784 20.5685V25.2784C109.255 26.084 107.551 26.4868 105.671 26.4868C102.654 26.4868 100.134 25.5263 98.1092 23.6051C95.8986 21.4774 94.7933 18.8436 94.7933 15.7037C94.7933 12.3573 95.8986 9.66148 98.1092 7.61641C100.051 5.79857 102.582 4.88965 105.701 4.88965C107.52 4.88965 109.214 5.31312 110.784 6.16007V10.8699C109.441 9.32063 107.778 8.54599 105.794 8.54599C103.77 8.54599 102.117 9.25866 100.836 10.684C99.576 12.0887 98.9459 13.7826 98.9459 15.7657C98.9459 17.9347 99.6483 19.6596 101.053 20.9404C102.458 22.2004 104.09 22.8305 105.949 22.8305C107.891 22.8305 109.503 22.0765 110.784 20.5685Z" fill="black"/>
<path d="M119.923 26.022L125.997 19.1122C127.98 16.7986 129.158 15.3629 129.529 14.8051C130.335 13.607 130.738 12.5019 130.738 11.4896C130.738 10.5601 130.438 9.80608 129.839 9.22768C129.261 8.64927 128.538 8.36007 127.67 8.36007C126.678 8.36007 125.893 8.70092 125.315 9.38261C124.736 10.0436 124.427 10.8493 124.385 11.7995H120.233C120.315 9.71312 121.028 8.03988 122.371 6.77979C123.714 5.5197 125.418 4.88965 127.484 4.88965C129.757 4.88965 131.533 5.54035 132.814 6.84176C134.116 8.14317 134.767 9.68214 134.767 11.4587C134.767 12.4502 134.539 13.4418 134.085 14.4333C133.63 15.4249 133.197 16.1789 132.783 16.6953C132.37 17.1911 131.781 17.8521 131.017 18.6784L127.453 22.5516H134.922V26.022H119.923Z" fill="black"/>
<path d="M138.682 24.7826L148.01 8.82486H138.403V5.35444H154.332L141.75 26.8896L138.682 24.7826Z" fill="black"/>
<path d="M156.295 24.7826L165.623 8.82486H156.016V5.35444H171.945L159.363 26.8896L156.295 24.7826Z" fill="black"/>
<path d="M186.645 23.6361C185.095 25.5366 183.215 26.4868 181.005 26.4868C178.794 26.4868 176.904 25.5366 175.334 23.6361C173.784 21.715 173.01 19.0605 173.01 15.6727C173.01 12.3056 173.784 9.67181 175.334 7.77134C176.904 5.85021 178.794 4.88965 181.005 4.88965C183.215 4.88965 185.095 5.85021 186.645 7.77134C188.215 9.67181 189 12.3159 189 15.7037C189 19.0709 188.215 21.715 186.645 23.6361ZM183.732 10.1882C182.926 8.96946 182.017 8.36007 181.005 8.36007C179.992 8.36007 179.073 8.96946 178.247 10.1882C177.441 11.3864 177.038 13.2145 177.038 15.6727C177.038 18.131 177.441 19.9695 178.247 21.1882C179.052 22.407 179.972 23.0164 181.005 23.0164C182.038 23.0164 182.957 22.407 183.763 21.1882C184.569 19.9695 184.971 18.131 184.971 15.6727C184.971 13.2145 184.558 11.3864 183.732 10.1882Z" fill="black"/>
<path d="M0 15.271L15.271 -3.95714e-05L30.5421 15.271H22.9066L15.271 30.542L7.63552 15.271H0Z" fill="black"/>
</svg>
