<svg width="158" height="49" viewBox="0 0 158 49" fill="none" xmlns="http://www.w3.org/2000/svg">
<path d="M76.4822 14.3143C79.0978 14.3143 81.0027 14.8857 82.1968 16.0286C83.4098 17.1524 84.0163 18.7048 84.0163 20.6857C84.0163 21.8667 83.7699 22.981 83.2771 24.0286C82.7843 25.0571 81.9598 25.8857 80.8037 26.5143C79.6664 27.1429 78.1122 27.4571 76.141 27.4571H74.293V34.7143H70V14.3143H76.4822ZM76.2547 17.8571H74.293V23.9143H75.7146C76.9276 23.9143 77.8848 23.6762 78.5861 23.2C79.3063 22.7048 79.6664 21.9143 79.6664 20.8286C79.6664 18.8476 78.5292 17.8571 76.2547 17.8571Z" fill="black"/>
<path d="M93.9082 18.8286C96.05 18.8286 97.7463 19.4476 98.9973 20.6857C100.248 21.9048 100.874 23.6476 100.874 25.9143V27.9714H90.8661C90.904 29.1714 91.2547 30.1143 91.918 30.8C92.6004 31.4857 93.5386 31.8286 94.7327 31.8286C95.7372 31.8286 96.647 31.7333 97.462 31.5429C98.277 31.3333 99.1205 31.019 99.9923 30.6V33.8857C99.2342 34.2667 98.4287 34.5429 97.5757 34.7143C96.7418 34.9048 95.7277 35 94.5337 35C92.9795 35 91.6053 34.7143 90.4112 34.1429C89.2171 33.5524 88.2789 32.6667 87.5966 31.4857C86.9142 30.3048 86.5731 28.819 86.5731 27.0286C86.5731 25.2 86.8763 23.6857 87.4829 22.4857C88.1083 21.2667 88.9707 20.3524 90.07 19.7429C91.1694 19.1333 92.4487 18.8286 93.9082 18.8286ZM93.9366 21.8571C93.1216 21.8571 92.4393 22.1238 91.8896 22.6571C91.3589 23.1905 91.0462 24.019 90.9514 25.1429H96.8934C96.8745 24.1905 96.6281 23.4095 96.1542 22.8C95.6804 22.1714 94.9412 21.8571 93.9366 21.8571Z" fill="black"/>
<path d="M110.62 35C108.308 35 106.517 34.3619 105.247 33.0857C103.996 31.7905 103.37 29.7619 103.37 27C103.37 25.0952 103.693 23.5429 104.337 22.3429C104.982 21.1429 105.872 20.2571 107.01 19.6857C108.166 19.1143 109.493 18.8286 110.99 18.8286C112.051 18.8286 112.971 18.9333 113.748 19.1429C114.544 19.3524 115.236 19.6 115.823 19.8857L114.572 23.1714C113.909 22.9048 113.283 22.6857 112.696 22.5143C112.127 22.3429 111.559 22.2571 110.99 22.2571C108.791 22.2571 107.692 23.8286 107.692 26.9714C107.692 28.5333 107.976 29.6857 108.545 30.4286C109.132 31.1714 109.947 31.5429 110.99 31.5429C111.881 31.5429 112.667 31.4286 113.35 31.2C114.032 30.9524 114.695 30.619 115.34 30.2V33.8286C114.695 34.2476 114.013 34.5429 113.293 34.7143C112.591 34.9048 111.701 35 110.62 35Z" fill="black"/>
<path d="M133.014 26.8857C133.014 29.4762 132.332 31.4762 130.967 32.8857C129.622 34.2952 127.783 35 125.452 35C124.011 35 122.722 34.6857 121.585 34.0571C120.467 33.4286 119.586 32.5143 118.941 31.3143C118.297 30.0952 117.975 28.619 117.975 26.8857C117.975 24.2952 118.647 22.3048 119.993 20.9143C121.339 19.5238 123.187 18.8286 125.537 18.8286C126.997 18.8286 128.285 19.1429 129.404 19.7714C130.522 20.4 131.403 21.3143 132.048 22.5143C132.692 23.6952 133.014 25.1524 133.014 26.8857ZM122.296 26.8857C122.296 28.4286 122.542 29.6 123.035 30.4C123.547 31.181 124.371 31.5714 125.509 31.5714C126.627 31.5714 127.432 31.181 127.925 30.4C128.437 29.6 128.693 28.4286 128.693 26.8857C128.693 25.3429 128.437 24.1905 127.925 23.4286C127.432 22.6476 126.617 22.2571 125.48 22.2571C124.362 22.2571 123.547 22.6476 123.035 23.4286C122.542 24.1905 122.296 25.3429 122.296 26.8857Z" fill="black"/>
<path d="M140.751 34.7143H136.515V13H140.751V34.7143Z" fill="black"/>
<path d="M151.546 18.8C153.631 18.8 155.223 19.2571 156.323 20.1714C157.441 21.0667 158 22.4476 158 24.3143V34.7143H155.043L154.219 32.6H154.105C153.442 33.4381 152.74 34.0476 152.001 34.4286C151.262 34.8095 150.248 35 148.959 35C147.575 35 146.429 34.6 145.519 33.8C144.609 32.981 144.154 31.7333 144.154 30.0571C144.154 28.4 144.732 27.181 145.889 26.4C147.045 25.6 148.779 25.1619 151.091 25.0857L153.792 25V24.3143C153.792 23.4952 153.574 22.8952 153.138 22.5143C152.721 22.1333 152.134 21.9429 151.376 21.9429C150.618 21.9429 149.878 22.0571 149.158 22.2857C148.438 22.4952 147.718 22.7619 146.997 23.0857L145.604 20.2C146.438 19.7619 147.357 19.419 148.362 19.1714C149.386 18.9238 150.447 18.8 151.546 18.8ZM152.143 27.5429C150.779 27.581 149.831 27.8286 149.3 28.2857C148.77 28.7429 148.504 29.3429 148.504 30.0857C148.504 30.7333 148.694 31.2 149.073 31.4857C149.452 31.7524 149.945 31.8857 150.551 31.8857C151.461 31.8857 152.229 31.619 152.854 31.0857C153.48 30.5333 153.792 29.7619 153.792 28.7714V27.4857L152.143 27.5429Z" fill="black"/>
<circle cx="22.0501" cy="21.5604" r="5.88" fill="black"/>
<circle cx="8.33013" cy="32.3397" r="5.88" fill="black"/>
<path d="M24.5 0C10.969 0 0 10.969 0 24.5C0 25.8343 0.106658 27.1436 0.311913 28.42L35.525 2.61486C32.2111 0.942166 28.4656 0 24.5 0Z" fill="black"/>
<path d="M24.5002 48.9997C38.0312 48.9997 49.0002 38.0307 49.0002 24.4997C49.0002 20.4361 48.0109 16.6035 46.2599 13.2297L7.24725 41.8947C11.6751 46.2867 17.7708 48.9997 24.5002 48.9997Z" fill="#0060FF"/>
<rect x="19.5997" y="37.7302" width="10.29" height="2.94" fill="black"/>
</svg>
